<?xml version="1.0" encoding="UTF-8" standalone="no"?>
<!-- Created with Inkscape (http://www.inkscape.org/) -->

<svg
   width="235.53099mm"
   height="110.76117mm"
   viewBox="0 0 235.53099 110.76117"
   version="1.1"
   id="svg1"
   xml:space="preserve"
   xmlns:xlink="http://www.w3.org/1999/xlink"
   xmlns="http://www.w3.org/2000/svg"
   xmlns:svg="http://www.w3.org/2000/svg"><defs
     id="defs1"><color-profile
       name="Agfa-:-Swop-Standard"
       xlink:href="../../../../../../Windows/system32/spool/drivers/color/RSWOP.icm"
       id="color-profile2" /><linearGradient
       id="swatch2"><stop
         style="stop-color:#000000;stop-opacity:1;"
         offset="0"
         id="stop2" /></linearGradient></defs><g
     id="layer1"
     transform="translate(-3.8959376,-47.138414)"><text
       xml:space="preserve"
       style="font-size:27.538px;line-height:1.25;fill:#000000;fill-opacity:1;stroke-width:0.382472"
       x="127.02094"
       y="78.380867"
       id="text9"
       transform="scale(0.93610552,1.0682556)"><tspan
         id="tspan9"
         style="font-style:normal;font-variant:normal;font-weight:bold;font-stretch:normal;font-size:27.538px;line-height:1.25;font-family:sans-serif;-inkscape-font-specification:sans-serif;fill:#fffd0e;fill-opacity:1;stroke-width:0.382472"
         x="127.02094"
         y="78.380867">Duchy</tspan><tspan
         style="font-style:normal;font-variant:normal;font-weight:bold;font-stretch:normal;font-size:27.538px;line-height:1.25;font-family:sans-serif;-inkscape-font-specification:sans-serif;fill:#fffd0e;fill-opacity:1;stroke-width:0.382472"
         x="127.02094"
         y="112.80337"
         id="tspan10">Tech</tspan><tspan
         style="font-style:normal;font-variant:normal;font-weight:bold;font-stretch:normal;font-size:27.538px;line-height:1.25;font-family:sans-serif;-inkscape-font-specification:sans-serif;fill:#fffd0e;fill-opacity:1;stroke-width:0.382472"
         x="127.02094"
         y="147.22586"
         id="tspan11">Services</tspan></text><path
       style="display:inline;opacity:1;fill:#fffd0e;fill-opacity:1;stroke-width:0.378095"
       d="M 53.949472,156.44406 C 45.638254,151.01561 33.973846,139.92712 26.891649,130.72217 12.889978,112.5238 4.7814238,90.855753 4.1035293,69.826697 L 3.8959375,63.38696 5.0654889,62.279841 C 6.304271,61.107187 7.4763968,60.760306 44.26399,50.679349 l 12.921628,-3.540934 17.835041,4.871831 c 31.428771,8.585101 33.027791,9.063788 34.271151,10.259498 1.10015,1.057995 1.11217,1.114882 1.11217,5.262596 0,8.565651 -1.82073,19.504467 -4.78872,28.770237 -6.891181,21.513593 -19.936044,40.126413 -38.792909,55.350943 -5.263819,4.24987 -8.341262,6.24606 -9.629291,6.24606 -0.558323,0 -2.017937,-0.65499 -3.243588,-1.45552 z m 8.28099,-12.39609 c 21.893691,-17.89734 35.736379,-42.04607 38.954458,-67.956539 0.55153,-4.440652 0.6936,-7.590561 0.34236,-7.590561 -0.1083,0 -10.125198,-2.727721 -22.259792,-6.061602 l -22.062889,-6.061603 -22.03918,6.061603 c -12.12155,3.333881 -22.143651,6.061602 -22.271336,6.061602 -0.704393,0 0.320406,9.854767 1.674174,16.099345 4.469865,20.618325 16.267406,40.577225 32.563877,55.091065 5.648327,5.03048 9.369541,7.97581 10.080109,7.97837 0.321886,0.001 2.580087,-1.6286 5.018219,-3.62168 z"
       id="path14" /><circle
       style="fill:#fffd0e;fill-opacity:1;stroke-width:0.264583"
       id="path20"
       cx="57.130344"
       cy="75.118195"
       r="7.071517" /><circle
       style="fill:#fffd0e;fill-opacity:1;stroke-width:0.264583"
       id="path20-1"
       cx="74.2864"
       cy="75.118195"
       r="7.071517" /><circle
       style="fill:#fffd0e;fill-opacity:1;stroke-width:0.264583"
       id="path20-6"
       cx="91.442451"
       cy="75.118195"
       r="7.071517" /><circle
       style="fill:#fffd0e;fill-opacity:1;stroke-width:0.264583"
       id="path20-1-5"
       cx="39.974289"
       cy="75.118195"
       r="7.071517" /><circle
       style="fill:#fffd0e;fill-opacity:1;stroke-width:0.264583"
       id="path20-1-3"
       cx="22.818233"
       cy="75.118195"
       r="7.071517" /><circle
       style="fill:#fffd0e;fill-opacity:1;stroke-width:0.264583"
       id="path20-1-2"
       cx="31.677765"
       cy="90.415268"
       r="7.071517" /><circle
       style="fill:#fffd0e;fill-opacity:1;stroke-width:0.264583"
       id="path20-1-30"
       cx="48.611099"
       cy="90.415268"
       r="7.071517" /><circle
       style="fill:#fffd0e;fill-opacity:1;stroke-width:0.264583"
       id="path20-1-27"
       cx="65.544434"
       cy="90.415268"
       r="7.071517" /><circle
       style="fill:#fffd0e;fill-opacity:1;stroke-width:0.264583"
       id="path20-1-34"
       cx="82.477768"
       cy="90.415268"
       r="7.071517" /><circle
       style="fill:#fffd0e;fill-opacity:1;stroke-width:0.264583"
       id="path20-1-9"
       cx="39.879852"
       cy="105.49651"
       r="7.071517" /><circle
       style="fill:#fffd0e;fill-opacity:1;stroke-width:0.264583"
       id="path20-1-6"
       cx="57.34235"
       cy="105.49651"
       r="7.071517" /><circle
       style="fill:#fffd0e;fill-opacity:1;stroke-width:0.264583"
       id="path20-1-1"
       cx="74.540268"
       cy="105.49651"
       r="7.071517" /><circle
       style="fill:#fffd0e;fill-opacity:1;stroke-width:0.264583"
       id="path20-1-8"
       cx="48.611099"
       cy="119.51943"
       r="7.071517" /><circle
       style="fill:#fffd0e;fill-opacity:1;stroke-width:0.264583"
       id="path20-1-80"
       cx="66.338188"
       cy="119.78401"
       r="7.071517" /><circle
       style="fill:#fffd0e;fill-opacity:1;stroke-width:0.264583"
       id="path20-1-86"
       cx="57.34235"
       cy="133.28003"
       r="7.071517" /></g></svg>
